<mxfile host="app.diagrams.net" modified="2023-11-25T01:24:02.937Z" agent="Mozilla/5.0 (Windows NT 10.0; Win64; x64) AppleWebKit/537.36 (KHTML, like Gecko) Chrome/119.0.0.0 Safari/537.36" version="22.1.3" etag="bYpdCDEnsHuukDu-cvcj" type="github">
  <diagram name="Page-1" id="0LPbcju5b3IQRJ1-V_Tn">
    <mxGraphModel>
      <root>
        <mxCell id="0" />
        <mxCell id="1" parent="0" />
      </root>
    </mxGraphModel>
  </diagram>
</mxfile>
